<?xml version="1.0" encoding="UTF-8"?>
<svg version="1.1" viewBox="0 0 1600 1600" width="100" height="100" xmlns="http://www.w3.org/2000/svg">
<path transform="translate(0)" d="m0 0h1600v1600h-1600z" fill="#36C193"/>
<path transform="translate(670,655)" d="m0 0h108l160 1 18 2 23 6 16 7 11 6 17 12 13 12 9 11 10 15 8 15 6 17 3 16 1 7v26l-5 23-8 20-9 16-11 16-9 11-10 10-19 13-14 8-14 6-15 4-17 3-14 1h-172l-71-1 1 151v53l-1 22-4 25-6 19-6 15-13 21-13 16-6 7-8 7-12 9-16 9-11 5-21 7-13 3-9 1h-20l-21-3-16-5-16-7-11-6-11-8-12-11-7-7-15-20-10-16-8-20-4-15-2-12-2-33-1-38v-150l2-39 4-29 5-22 5-15 11-25 11-24 9-16 10-15 14-19 14-15 4-5 8-7 9-9 19-14 16-10 16-9 26-11 29-9 24-5 25-3z" fill="#FEFDFD"/>
<path transform="translate(946,293)" d="m0 0h122l21 3 16 4 15 6 19 10 12 8 15 13 10 11 10 14 8 14 6 15 5 17 2 12v35l-5 25-5 14-12 23-8 10-10 13-15 15-14 10-14 8-12 5-17 6-15 3-14 1h-365l-31 1-32 3-22 4-19 5-30 11-16 8-19 10-14 9-16 11-11 9-12 11-10 9-7 8-8 9-10 14-6 9-6 11-7 11-8 16-9 19-7 11-6 3-3-2v-25l2-33v-142l3-34 5-29 7-25 8-22 8-17 12-22 11-18 10-13 11-14 12-13 9-9 14-11 13-10 21-14 16-9 16-8 17-7 18-6 30-7 26-3 17-1h131l72-2z" fill="#FEFDFD"/>
<path transform="translate(670,655)" d="m0 0h108l160 1 18 2 23 6 16 7 11 6 17 12 13 12 9 11 10 15 8 15 6 17 3 16 1 7v26l-5 23-8 20-9 16-11 16-9 11-10 10-19 13-14 8-14 6-15 4-17 3-14 1h-172l-71-1 1 151v53l-1 22h-1l-1-116v-111l2-9 4-35 5-22 9-27 8-18 11-21 8-12 1-3h2v-3l4-4 6-8 1-3 5-5 11-13 7-7 7-8 15-13 15-12 20-14 18-11 18-10 9-4 27-6 10-3 16-2v-2l-11-3-135-2h-91l-27 1-29 3-25 5-4-1 21-5 20-3z" fill="#C5FDE7"/>
<path transform="translate(678,296)" d="m0 0h48l83 1v1l-43 2-14 3-5 2-3 9-18 10-17 9-15 7-11 4-24 13-19 10-28 17-16 11-11 8-13 11-8 7-10 9-32 32-9 11-11 13-15 20-13 18-10 16-4 10-13 29-7 17-12 34-9 26-6 16-5 18-4 11-3 5-2 14-1 1-2 23-1 24 1 14 2 2 6-8 8-13 7-16 3-3-1 4-11 24-7 12-5 5-3 1-3-2v-25l2-33v-142l3-34 5-29 7-25 8-22 8-17 12-22 11-18 10-13 11-14 12-13 9-9 14-11 13-10 21-14 16-9 16-8 17-7 18-6 30-7 26-3z" fill="#C5FDE7"/>
<path transform="translate(678,296)" d="m0 0h48l83 1v1l-43 2-14 3-5 2-3 9-18 10-17 9-15 7-2-1 17-10 3-1 1-5-24-2h-6v-2l-12-1h-35l-11 2-11 1-13 4-12 6-5 4-5 3-4 4-10 6-10 7-8 4-13 8-7 6-13 10-12 9-15 8-13 11-7 9-12 17-9 14-16 31-5 18-5 34-1 24-1 4v17l4 20 2 5 5-1 6-10 12-21 7-16 8-14 1 2-8 17-12 27-13 36-11 32-6 16-5 18-4 11-3 5-2 14-1 1-2 23-1 24 1 14 2 2 6-8 8-13 7-16 3-3-1 4-11 24-7 12-5 5-3 1-3-2v-25l2-33v-142l3-34 5-29 7-25 8-22 8-17 12-22 11-18 10-13 11-14 12-13 9-9 14-11 13-10 21-14 16-9 16-8 17-7 18-6 30-7 26-3z" fill="#E0FBF2"/>
<path transform="translate(452,416)" d="m0 0 1 2-9 14-11 19-11 23-9 22-4 13-4 20-5 65v88l-2 39-2 23-1 24 1 14 2 2 6-8 8-13 7-16 3-3-1 4-11 24-7 12-5 5-3 1-3-2v-25l2-33v-142l3-34 5-29 7-25 8-22 8-17 12-22 11-18z" fill="#C5FEE7"/>
<path transform="translate(853,658)" d="m0 0h58l11 3v4l-16 2-13 4-16 3-10 3-16 8-16 9-21 14-15 11-13 11-7 6h-2v-2l11-9 8-7 19-14 24-16h2v-2l14-7 4-1v-2l10-5 7-5v-4l-8-2-15-1z" fill="#E1FBF3"/>
<path transform="translate(678,296)" d="m0 0h48l83 1v1l-117 1-38 2-26 4-22 5-30 10-15 7-4 2-3-1 16-8 17-7 18-6 30-7 26-3z" fill="#C5FEE7"/>
<path transform="translate(1039,873)" d="m0 0 3 1-1 5-8 10-6 7-8 7-8 6-14 9-7 4-6 1 2-5 11-8 12-9 7-5h2v-2l8-7 9-11z" fill="#E1FBF3"/>
<path transform="translate(951,662)" d="m0 0h14l16 5 7 3v5h-8l-10-3-21-6z" fill="#E1FBF3"/>
<path transform="translate(490,1299)" d="m0 0 10 2 14 3 16 2h10l16-2h9l-4 2-14 2h-20l-21-3-16-5z" fill="#CEFCEB"/>
<path transform="translate(395,768)" d="m0 0 2 3 2 4h5l2-4v3l-6 9-3 2-2-3z" fill="#E1FBF3"/>
<path transform="translate(497,717)" d="m0 0 2 1-31 31v-3l14-14z" fill="#DBFDF0"/>
<path transform="translate(767,744)" d="m0 0 2 1-7 8-6 5 2-4 5-6h2z" fill="#E1FBF3"/>
</svg>
